<?xml version="1.0" encoding="utf-8"?>
<!-- Generator: Adobe Illustrator 17.0.0, SVG Export Plug-In . SVG Version: 6.00 Build 0)  -->
<!DOCTYPE svg PUBLIC "-//W3C//DTD SVG 1.1//EN" "http://www.w3.org/Graphics/SVG/1.1/DTD/svg11.dtd">
<svg version="1.1" id="图层_1" xmlns="http://www.w3.org/2000/svg" xmlns:xlink="http://www.w3.org/1999/xlink" x="0px" y="0px"
	 width="768px" height="768px" viewBox="0 0 768 768" enable-background="new 0 0 768 768" xml:space="preserve">
<g id="icomoon-ignore">
</g>
<g>
	<g>
		<path d="M384,602.854c-120.262,0-218.103-97.841-218.103-218.105v-118.27c0-120.261,97.841-218.101,218.103-218.101
			c120.263,0,218.103,97.839,218.103,218.101v118.27C602.103,505.013,504.263,602.854,384,602.854z M384,50.926
			c-118.857,0-215.554,96.697-215.554,215.553v118.27c0,118.859,96.697,215.557,215.554,215.557s215.555-96.698,215.555-215.557
			v-118.27C599.555,147.623,502.857,50.926,384,50.926z"/>
	</g>
	<g>
		<path fill-rule="evenodd" clip-rule="evenodd" d="M385.274,715.995c0,0.898-0.57,1.627-1.274,1.627l0,0
			c-0.704,0-1.274-0.728-1.274-1.627v-566.16c0-0.898,0.57-1.627,1.274-1.627l0,0c0.704,0,1.274,0.728,1.274,1.627V715.995z"/>
	</g>
	<g>
		<g>
			<path fill-rule="evenodd" clip-rule="evenodd" d="M384.592,392.066c0.292,0.379,0.077,1.034-0.48,1.464l0,0
				c-0.557,0.43-1.246,0.471-1.538,0.093L198.572,155.063c-0.292-0.379-0.077-1.034,0.48-1.464l0,0
				c0.557-0.43,1.246-0.471,1.538-0.093L384.592,392.066z"/>
		</g>
		<g>
			<path fill-rule="evenodd" clip-rule="evenodd" d="M384.276,550.517c0.342,0.443,0.167,1.151-0.39,1.581l0,0
				c-0.557,0.43-1.286,0.419-1.628-0.024l-215.364-279.22c-0.342-0.443-0.167-1.151,0.39-1.58l0,0
				c0.557-0.43,1.286-0.419,1.628,0.024L384.276,550.517z"/>
		</g>
	</g>
	<g>
		<g>
			<path fill-rule="evenodd" clip-rule="evenodd" d="M383.468,392.066c-0.292,0.379-0.077,1.034,0.48,1.464l0,0
				c0.557,0.43,1.246,0.471,1.538,0.093l184.002-238.559c0.292-0.379,0.077-1.034-0.48-1.464l0,0
				c-0.557-0.43-1.246-0.471-1.538-0.093L383.468,392.066z"/>
		</g>
		<g>
			<path fill-rule="evenodd" clip-rule="evenodd" d="M383.783,550.517c-0.342,0.443-0.167,1.151,0.39,1.581l0,0
				c0.557,0.43,1.286,0.419,1.628-0.024l215.364-279.22c0.342-0.443,0.167-1.151-0.39-1.58l0,0c-0.557-0.43-1.286-0.419-1.628,0.024
				L383.783,550.517z"/>
		</g>
	</g>
</g>
</svg>
