<?xml version="1.0" encoding="utf-8"?>
<!-- Generator: Adobe Illustrator 17.0.0, SVG Export Plug-In . SVG Version: 6.00 Build 0)  -->
<!DOCTYPE svg PUBLIC "-//W3C//DTD SVG 1.1//EN" "http://www.w3.org/Graphics/SVG/1.1/DTD/svg11.dtd">
<svg version="1.1" xmlns="http://www.w3.org/2000/svg" xmlns:xlink="http://www.w3.org/1999/xlink" x="0px" y="0px" width="768px"
	 height="768px" viewBox="0 0 768 768" enable-background="new 0 0 768 768" xml:space="preserve">
<g id="图层_1" display="none">
	<g id="icomoon-ignore" display="inline">
	</g>
	<path display="inline" d="M312.6,16.9C141.75,16.9,3.15,155.5,3.15,326.5s138.6,309.6,309.6,309.6s309.6-138.6,309.6-309.6
		C622.2,155.5,483.6,16.9,312.6,16.9L312.6,16.9z M312.6,578.35c-139.05,0-251.7-112.65-251.7-251.85
		c0-139.05,112.65-251.85,251.7-251.85s251.85,112.8,251.85,251.85S451.65,578.35,312.6,578.35z M537.6,511.9l227.25,227.25
		l-43.8,43.8L493.8,555.7L537.6,511.9L537.6,511.9z"/>
</g>
<g id="图层_2">
	<g>
		<g>
			<path d="M458.031,442.62v-2c60.021,0,108.851-47.678,108.851-106.281c0-58.604-48.83-106.281-108.851-106.281
				c-10.165,0-20.275,1.385-30.05,4.115l-0.539-1.926c9.95-2.78,20.242-4.189,30.589-4.189c61.123,0,110.851,48.575,110.851,108.281
				S519.154,442.62,458.031,442.62z"/>
		</g>
		<g>
			<path d="M739.743,638.176h-2c0-117.725-97.915-213.501-218.27-213.501v-2c58.83,0,114.142,22.413,155.744,63.111
				C716.828,526.491,739.743,580.61,739.743,638.176z"/>
		</g>
		<g>
			<path d="M307.069,392.505c-68.559,0-124.335-55.776-124.335-124.335s55.777-124.335,124.335-124.335
				s124.335,55.777,124.335,124.335S375.628,392.505,307.069,392.505z M307.069,145.834c-67.456,0-122.335,54.879-122.335,122.335
				c0,67.456,54.879,122.335,122.335,122.335c67.456,0,122.335-54.879,122.335-122.335
				C429.404,200.714,374.525,145.834,307.069,145.834z"/>
		</g>
		<g>
			<path d="M554.74,638.176h-2c0-135.463-110.208-245.671-245.671-245.671S61.399,502.713,61.399,638.176h-2
				c0-66.158,25.763-128.355,72.544-175.134c46.779-46.776,108.973-72.537,175.126-72.537s128.348,25.761,175.126,72.537
				C528.977,509.82,554.74,572.018,554.74,638.176z"/>
		</g>
	</g>
</g>
<g id="图层_3" display="none">
	<g display="inline">
		<path d="M384,603.854c-120.262,0-218.103-97.841-218.103-218.105v-118.27c0-120.261,97.841-218.101,218.103-218.101
			c120.263,0,218.103,97.839,218.103,218.101v118.27C602.103,506.013,504.263,603.854,384,603.854z M384,51.926
			c-118.857,0-215.554,96.697-215.554,215.553v118.27c0,118.859,96.697,215.557,215.554,215.557s215.555-96.698,215.555-215.557
			v-118.27C599.555,148.623,502.857,51.926,384,51.926z"/>
	</g>
	<g display="inline">
		<path fill-rule="evenodd" clip-rule="evenodd" d="M385.274,716.995c0,0.898-0.57,1.627-1.274,1.627l0,0
			c-0.704,0-1.274-0.728-1.274-1.627v-566.16c0-0.898,0.57-1.627,1.274-1.627l0,0c0.704,0,1.274,0.728,1.274,1.627V716.995z"/>
	</g>
	<g display="inline">
		<g>
			<path fill-rule="evenodd" clip-rule="evenodd" d="M384.592,393.066c0.292,0.379,0.077,1.034-0.48,1.464l0,0
				c-0.557,0.43-1.246,0.471-1.538,0.093L198.572,156.063c-0.292-0.379-0.077-1.034,0.48-1.464l0,0
				c0.557-0.43,1.246-0.471,1.538-0.093L384.592,393.066z"/>
		</g>
		<g>
			<path fill-rule="evenodd" clip-rule="evenodd" d="M384.276,551.517c0.342,0.443,0.167,1.151-0.39,1.581l0,0
				c-0.557,0.43-1.286,0.419-1.628-0.024l-215.364-279.22c-0.342-0.443-0.167-1.151,0.39-1.58l0,0
				c0.557-0.43,1.286-0.419,1.628,0.024L384.276,551.517z"/>
		</g>
	</g>
	<g display="inline">
		<g>
			<path fill-rule="evenodd" clip-rule="evenodd" d="M383.468,393.066c-0.292,0.379-0.077,1.034,0.48,1.464l0,0
				c0.557,0.43,1.246,0.471,1.538,0.093l184.002-238.559c0.292-0.379,0.077-1.034-0.48-1.464l0,0
				c-0.557-0.43-1.246-0.471-1.538-0.093L383.468,393.066z"/>
		</g>
		<g>
			<path fill-rule="evenodd" clip-rule="evenodd" d="M383.783,551.517c-0.342,0.443-0.167,1.151,0.39,1.581l0,0
				c0.557,0.43,1.286,0.419,1.628-0.024l215.364-279.22c0.342-0.443,0.167-1.151-0.39-1.58l0,0c-0.557-0.43-1.286-0.419-1.628,0.024
				L383.783,551.517z"/>
		</g>
	</g>
</g>
</svg>
